<svg version="1" xmlns="http://www.w3.org/2000/svg" width="933.333" height="933.333" viewBox="0 0 700.000000 700.000000"><path d="M355 230.2v51.3l-53.7 53.7-53.8 53.8-18-18-18-18-74 74.1-74 74.1 49.9-.6c27.5-.3 156.2-.6 286-.6h236.1l-57.7-57.7-57.8-57.8-14.3 14.3-14.2 14.2-66.3-66.3-66.2-66.2v-39.3l35.5-15.3c19.5-8.5 35.1-15.6 34.7-16-1.6-1.3-71.1-30.9-72.6-30.9-1.4 0-1.6 5.2-1.6 51.2zm45.8 109.7c22.9 25.6 42.3 47.3 43 48.2 1.1 1.5 4.8 24.7 4 25.4-.2.2-5-.9-10.8-2.5-25.6-6.9-57.2-14.8-56.4-14.1.5.5 12.5 9.7 26.7 20.6 14.1 10.9 25.6 20 25.4 20.2-.2.2-11.1-4.9-24.2-11.2-13.1-6.4-24.1-11.2-24.5-10.8-.4.4-1.5 6.6-2.5 13.8-1 7.1-2.1 14.1-2.5 15.4-.5 2.1-2.8-.6-17.5-20.3-9.3-12.4-17.2-22.6-17.5-22.6-.4 0-5 6.1-10.4 13.6-5.4 7.4-10 13.3-10.3 13-.2-.2 1.6-7.9 4.2-17.1 4-14.5 4.4-16.8 3.1-17.8-.8-.7-5-4-9.4-7.4l-8-6.3 3.2 8.9c1.7 4.9 2.9 9.1 2.6 9.3-4.2 3.4-23 15.5-23.4 15-.2-.4-.9-3.2-1.6-6.3-1.1-5-1-6.7.9-14.9 1.2-5.1 1.9-9.5 1.7-9.8-.3-.2-4.7 2.8-9.8 6.8-5.1 4-9.4 7.4-9.6 7.5-.1.1.5 3.9 1.4 8.5.8 4.5 1.4 8.3 1.2 8.5-.2.1-5.3-2.9-11.5-6.8l-11.1-7.1 3.6-4.2c12.7-14.6 96.8-103.2 97.5-102.7.4.2 19.6 21.5 42.5 47.2zm-169 45.3c5.1 4.8 8.7 8.8 8 8.8-.7-.1-5.3-.9-10.2-1.9l-8.8-1.9 5.8 5.9c3.2 3.2 5.3 5.9 4.6 5.9-.6 0-3.7-1.1-6.9-2.5-6.1-2.6-6.1-2.6 2.1 4.2l3.8 3.1-5.8.7c-8.9 1-8.8.9-6.4 5.6 1.7 3.2 1.9 4.3.9 5.5-1 1.3-1.7 1.1-4.3-1.5l-3.2-3.1-12.4 7.1c-6.9 3.8-15.9 8.9-20 11.1l-7.5 4.1 3.5-3.9c1.9-2.1 6-6.5 9-9.7l5.5-5.8-5.5 2.4c-3 1.4-15.6 7.5-27.9 13.6-12.3 6.1-22.5 11-22.7 10.8-.2-.2 17.2-17.8 38.6-39.1l39.1-38.8 5.7 5.3c3.1 2.9 9.9 9.3 15 14.1zm333.3 59c24.7 24.4 44.9 44.6 44.9 44.9 0 .4-3.9-.6-8.7-2.1-4.9-1.6-12.7-4-17.5-5.4l-8.6-2.7L559 460c-8.9-10.5-16.3-19-16.5-19-.4 0 5.1 12.4 8.5 18.9 1.1 2.3 2.5 5.4 3.1 6.9 1.1 3 .1 2.2-17.9-15.3l-9.3-9 .6 4c.7 4 .6 3.9-14.9-11.5-8.6-8.5-15.5-15.8-15.4-16.2.3-.7 21.9-18.6 22.6-18.7.2-.1 20.6 19.8 45.3 44.1z"/></svg>